<svg xmlns="http://www.w3.org/2000/svg" width="95" height="40" fill="none"><path stroke="#000" stroke-linecap="round" stroke-linejoin="round" stroke-width="2" d="m11 12.429-10 10 10 10M31 12.429l10 10-10 10"/><path fill="#000" d="m24.535 5.043-8.587 32.046a.816.816 0 1 1-1.577-.422L22.958 4.62a.816.816 0 0 1 1.577.423"/><path fill="#D9D9D9" d="M22.958 4.62a.816.816 0 0 1 1.577.423l-1.046 3.903-1.577-.423z"/><path stroke="#000" stroke-linecap="round" d="m25.695 7.022 3.154.846M17.81 4.91l3.154.845M19.646 1.211l1.637 2.81M17.587 8.897l2.822-1.615M25.276 8.586l1.637 2.81M26.15 5.324l2.823-1.614"/><path fill="#000" d="M55.016 15.072q-1.248 0-2.256-.552a4.1 4.1 0 0 1-1.572-1.524 4.34 4.34 0 0 1-.564-2.196q0-1.212.564-2.184a4.06 4.06 0 0 1 1.584-1.536q1.008-.552 2.256-.552.936 0 1.728.312t1.344.912l-.564.564q-.984-.996-2.484-.996a3.65 3.65 0 0 0-1.812.456q-.816.456-1.284 1.248A3.5 3.5 0 0 0 51.5 10.8q0 .984.456 1.776.468.792 1.284 1.248a3.65 3.65 0 0 0 1.812.456q1.512 0 2.484-1.008l.564.564q-.552.6-1.356.924a4.7 4.7 0 0 1-1.728.312m7.096-.012a3.3 3.3 0 0 1-1.644-.408 3.06 3.06 0 0 1-1.152-1.152 3.27 3.27 0 0 1-.42-1.656q0-.924.42-1.656t1.152-1.14a3.3 3.3 0 0 1 1.644-.408q.912 0 1.644.408t1.14 1.14q.42.732.42 1.656t-.42 1.656a3 3 0 0 1-1.14 1.152 3.3 3.3 0 0 1-1.644.408m0-.756q.672 0 1.2-.3.54-.312.84-.876t.3-1.284-.3-1.284-.84-.864a2.3 2.3 0 0 0-1.2-.312q-.672 0-1.212.312-.528.3-.84.864-.3.564-.3 1.284t.3 1.284q.312.564.84.876.54.3 1.212.3m10.703-8.208V15H72v-1.248a2.6 2.6 0 0 1-1.02.972 2.94 2.94 0 0 1-1.416.336 3.2 3.2 0 0 1-1.608-.408 2.9 2.9 0 0 1-1.128-1.14q-.408-.732-.408-1.668t.408-1.668a2.83 2.83 0 0 1 1.128-1.128 3.2 3.2 0 0 1 1.608-.408q.768 0 1.38.324a2.57 2.57 0 0 1 1.02.924V6.096zm-3.18 8.208q.66 0 1.188-.3.54-.312.84-.876.312-.564.312-1.284t-.312-1.284q-.3-.564-.84-.864a2.3 2.3 0 0 0-1.188-.312q-.672 0-1.212.312-.528.3-.84.864-.3.564-.3 1.284t.3 1.284q.312.564.84.876.54.3 1.212.3m5.553-5.616h.852V15h-.852zm.432-1.38a.6.6 0 0 1-.444-.18.6.6 0 0 1-.18-.432q0-.24.18-.42t.444-.18.444.18q.18.168.18.408 0 .264-.18.444a.6.6 0 0 1-.444.18m6.007 1.332q1.188 0 1.884.696.708.684.708 2.004V15h-.852v-3.576q0-.984-.492-1.5t-1.404-.516q-1.02 0-1.62.612-.588.6-.588 1.668V15h-.852V8.688h.816v1.164q.348-.576.96-.888.624-.324 1.44-.324m10.772.048v5.544q0 1.608-.792 2.376-.78.78-2.364.78a5.2 5.2 0 0 1-1.668-.264q-.78-.252-1.272-.708l.432-.648q.456.408 1.104.636.66.228 1.38.228 1.2 0 1.764-.564.564-.552.564-1.728v-.804q-.396.6-1.044.912a3.2 3.2 0 0 1-1.416.312 3.43 3.43 0 0 1-1.62-.384 3 3 0 0 1-1.14-1.092 3.14 3.14 0 0 1-.408-1.596q0-.888.408-1.584.42-.696 1.14-1.08a3.4 3.4 0 0 1 1.62-.384q.804 0 1.452.324t1.044.936V8.688zm-3.228 5.316q.684 0 1.236-.288.552-.3.852-.828.312-.528.312-1.2a2.25 2.25 0 0 0-.312-1.188 2.05 2.05 0 0 0-.852-.816q-.54-.3-1.236-.3-.684 0-1.236.288-.54.288-.852.816-.3.528-.3 1.2t.3 1.2q.312.528.852.828.552.288 1.236.288M77.957 23.453q-.252.369-.562.885a35 35 0 0 0-.663 1.154q-.299.534-.591 1.137a46 46 0 0 0-1.038 2.32 66 66 0 0 0-.738 1.87q-.06.146-.21.146a.2.2 0 0 1-.136-.047.24.24 0 0 1-.076-.129l-.058-.246q-.052-.245-.147-.65l-.216-.938a79 79 0 0 0-.253-1.107q-.128-.58-.263-1.172t-.252-1.125a22 22 0 0 1-.791 1.963 11.5 11.5 0 0 1-.809 1.482 6.2 6.2 0 0 1-.861 1.055 4.2 4.2 0 0 1-.926.691q-.48.258-1.014.37a5.4 5.4 0 0 1-1.119.11q-.305 0-.65-.07a3.4 3.4 0 0 1-.686-.205 3.6 3.6 0 0 1-.65-.351 2.7 2.7 0 0 1-.55-.498 2.4 2.4 0 0 1-.382-.657 2.3 2.3 0 0 1-.14-.82q0-.474.199-.867.2-.398.54-.68.339-.287.784-.445.451-.159.95-.158.362 0 .65.064.293.06.515.152.223.094.381.206.159.11.264.205.105.093.152.164a.3.3 0 0 0 .053.064.26.26 0 0 1 .035.123.22.22 0 0 1-.064.153.2.2 0 0 1-.158.07.22.22 0 0 1-.188-.1l-.094-.105a1.2 1.2 0 0 0-.287-.229 2.3 2.3 0 0 0-.515-.222 2.5 2.5 0 0 0-.762-.1q-.41 0-.78.129-.362.124-.638.351-.27.229-.434.545a1.5 1.5 0 0 0-.158.686q0 .369.123.674t.328.545a2.2 2.2 0 0 0 .475.416q.27.176.562.293.294.11.586.17.3.052.563.052.446 0 .867-.064.427-.07.838-.258.416-.188.814-.515.4-.33.791-.856.393-.527.774-1.271a17 17 0 0 0 1.002-2.415q.111-.35.228-.709a15 15 0 0 1-.146-.878 6 6 0 0 1-.041-.604q0-.258.04-.41a.6.6 0 0 1 .106-.229.26.26 0 0 1 .14-.1q.077-.023.147-.023a.4.4 0 0 1 .13.024q.075.023.134.105.064.076.106.229.04.152.04.41 0 .28-.052.65a9 9 0 0 1-.158.815q.075.357.175.797.1.439.205.914l.434 1.922.2.896.18.773q.159-.398.388-.96.228-.57.51-1.202.28-.638.591-1.295.316-.662.645-1.248a24 24 0 0 1 .85-1.423q.386-.598.667-.985a9 9 0 0 1 .615-.773.22.22 0 0 1 .159-.065q.1 0 .158.07a.21.21 0 0 1 .047.235q0 .006-.07.176-.066.164-.17.457-.1.287-.223.68a16 16 0 0 0-.451 1.775 10 10 0 0 0-.159 1.441q-.01.24-.011.487 0 .386.035.779t.117.756a4 4 0 0 0 .223.685q.14.317.346.557.204.24.486.387.287.146.662.158a.18.18 0 0 1 .146.082q.06.07.059.152a.2.2 0 0 1-.064.147.2.2 0 0 1-.153.064q-.094 0-.187-.017-.422-.06-.744-.24a2.2 2.2 0 0 1-.557-.458 2.7 2.7 0 0 1-.393-.62 4.4 4.4 0 0 1-.246-.75 6 6 0 0 1-.135-.827 11 11 0 0 1 .018-1.916 13.5 13.5 0 0 1 .346-1.975q.117-.462.24-.86m6.744 5.912-.1.2q-.07.145-.187.34a5 5 0 0 1-.264.404q-.152.211-.34.386-.187.176-.404.293a1 1 0 0 1-.457.112.81.81 0 0 1-.574-.217 1.3 1.3 0 0 1-.334-.545q-.2.334-.475.533a.95.95 0 0 1-.55.194 1 1 0 0 1-.393-.077.9.9 0 0 1-.299-.222 1.1 1.1 0 0 1-.193-.34 1.3 1.3 0 0 1-.065-.422q0-.457.153-.803a1.9 1.9 0 0 1 .398-.586 1.6 1.6 0 0 1 .527-.351q.293-.117.563-.117.182 0 .334.052.153.047.258.106.11.059.17.111l.064.053q.065.075.065.158a.23.23 0 0 1-.065.158.2.2 0 0 1-.152.065.22.22 0 0 1-.158-.065 1 1 0 0 0-.053-.04.6.6 0 0 0-.111-.071.8.8 0 0 0-.17-.059.7.7 0 0 0-.217-.03q-.181 0-.387.083-.206.082-.375.258a1.4 1.4 0 0 0-.287.433 1.55 1.55 0 0 0-.088.844.6.6 0 0 0 .082.205.45.45 0 0 0 .158.152q.1.06.246.06a.5.5 0 0 0 .24-.071.8.8 0 0 0 .264-.217q.129-.146.229-.37.105-.222.146-.526a.2.2 0 0 1 .077-.135.22.22 0 0 1 .152-.059q.083 0 .14.065a.23.23 0 0 1 .07.146l.024.317q.018.198.076.398.065.2.188.346a.42.42 0 0 0 .34.146.55.55 0 0 0 .275-.076q.141-.075.27-.2.135-.127.252-.286a4 4 0 0 0 .398-.645q.076-.152.129-.264a.23.23 0 0 1 .082-.1.24.24 0 0 1 .123-.034.19.19 0 0 1 .158.076.22.22 0 0 1 .065.152.2.2 0 0 1-.018.082m1.717 2.21q1.101-1.437 1.53-2.386a.21.21 0 0 1 .193-.128q.099 0 .164.07a.21.21 0 0 1 .047.234q-.258.585-.733 1.307a22 22 0 0 1-1.201 1.629q0 .369.006.738.006.37.006.809t-.024.867q-.018.433-.07.82a5 5 0 0 1-.147.72 2.2 2.2 0 0 1-.234.575 1.1 1.1 0 0 1-.346.38.8.8 0 0 1-.474.142.7.7 0 0 1-.604-.3q-.21-.299-.21-.849 0-.292.052-.639.06-.339.164-.703t.252-.738q.153-.369.334-.72.181-.352.393-.675.216-.322.457-.585.005-.41.005-.815.006-.404.018-.744a1.3 1.3 0 0 1-.422.352q-.24.128-.48.128a.9.9 0 0 1-.375-.076.9.9 0 0 1-.281-.222 1.1 1.1 0 0 1-.182-.34 1.3 1.3 0 0 1-.065-.422q0-.457.153-.803a1.9 1.9 0 0 1 .398-.586 1.6 1.6 0 0 1 .527-.351q.293-.117.563-.117.182 0 .334.046.153.048.258.106a.9.9 0 0 1 .234.17q.065.07.065.158a.23.23 0 0 1-.065.158.2.2 0 0 1-.152.065.24.24 0 0 1-.158-.065l-.065-.047a.57.57 0 0 0-.246-.129.7.7 0 0 0-.2-.023q-.174 0-.386.082a1.1 1.1 0 0 0-.392.246q-.182.17-.305.44a1.5 1.5 0 0 0-.123.638q0 .282.123.457.123.17.38.17a.56.56 0 0 0 .259-.07.9.9 0 0 0 .27-.217q.128-.146.222-.37a2 2 0 0 0 .14-.526.2.2 0 0 1 .077-.135.22.22 0 0 1 .152-.059q.1 0 .152.07.06.07.059.159l-.006.181q-.006.17-.012.457l-.017.668zm-.445 1.282q-.276.381-.498.827a8 8 0 0 0-.381.908q-.159.458-.246.885a4 4 0 0 0-.082.773q0 .217.035.346a.7.7 0 0 0 .093.199q.059.07.124.094.07.023.129.023a.42.42 0 0 0 .316-.146 1.2 1.2 0 0 0 .228-.393q.094-.24.153-.557.058-.316.088-.656.03-.333.04-.668.013-.333.012-.615v-.504q0-.252-.011-.516m2.935-6.457a.52.52 0 0 1-.158.381.5.5 0 0 1-.375.153.53.53 0 0 1-.38-.153.53.53 0 0 1-.153-.38q0-.112.04-.206a.5.5 0 0 1 .112-.17q.076-.076.17-.117a.55.55 0 0 1 .416 0 .5.5 0 0 1 .17.117q.076.07.117.17.04.094.041.205m-.949 3.434q0-.843.105-1.682a.24.24 0 0 1 .07-.14.22.22 0 0 1 .165-.065q.087 0 .146.07.06.065.059.153 0 .035-.018.21-.012.177-.035.423l-.035.515q-.012.27-.012.498 0 .31.059.504a.9.9 0 0 0 .158.293.5.5 0 0 0 .205.14.7.7 0 0 0 .211.036q.165 0 .34-.117a1.8 1.8 0 0 0 .357-.328q.188-.21.375-.504.187-.3.37-.662a.2.2 0 0 1 .082-.088.2.2 0 0 1 .117-.035q.093 0 .152.07a.22.22 0 0 1 .064.152q0 .06-.023.1-.07.136-.176.328a5.7 5.7 0 0 1-.539.809 3 3 0 0 1-.34.363 1.8 1.8 0 0 1-.38.258.932.932 0 0 1-.867-.012 1.1 1.1 0 0 1-.34-.299 1.4 1.4 0 0 1-.206-.44 2.3 2.3 0 0 1-.064-.55m.621-3.434a.18.18 0 0 0-.064-.14.18.18 0 0 0-.141-.065.18.18 0 0 0-.14.065.2.2 0 0 0-.06.14q0 .083.06.141.057.06.14.059.083 0 .14-.059a.18.18 0 0 0 .065-.14m5.725 2.977q-.036.064-.123.234a3 3 0 0 1-.229.387q-.14.21-.34.44a2.489 2.489 0 0 1-1.037.732 1.9 1.9 0 0 1-.691.123q-.334 0-.592-.123a1.2 1.2 0 0 1-.44-.334 1.6 1.6 0 0 1-.275-.521q-.093-.3-.094-.663a2.1 2.1 0 0 1 .1-.656q.099-.31.27-.539.176-.228.404-.357a.94.94 0 0 1 .838-.065.74.74 0 0 1 .263.176q.112.111.17.246a.6.6 0 0 1 .065.27.8.8 0 0 1-.035.24.8.8 0 0 1-.082.199.5.5 0 0 1-.112.135.222.222 0 0 1-.293-.018.23.23 0 0 1-.04-.24l.046-.07a.398.398 0 0 0 .07-.24q0-.124-.117-.223a.41.41 0 0 0-.287-.1.57.57 0 0 0-.316.1 1 1 0 0 0-.258.27q-.111.164-.182.392a1.7 1.7 0 0 0-.064.474q0 .24.058.457.06.218.176.387.117.165.293.264.182.1.428.1.316 0 .586-.112.27-.117.492-.293.224-.176.393-.38a5 5 0 0 0 .287-.393 3 3 0 0 0 .27-.498.17.17 0 0 1 .075-.088.24.24 0 0 1 .124-.035q.1 0 .158.07.064.07.064.158a.3.3 0 0 1-.023.094"/></svg>